<?xml version="1.0" encoding="UTF-8"?>
<!DOCTYPE svg PUBLIC "-//W3C//DTD SVG 1.1//EN" "http://www.w3.org/Graphics/SVG/1.1/DTD/svg11.dtd">
<!-- Creator: CorelDRAW 2021 (64-Bit) -->
<svg xmlns="http://www.w3.org/2000/svg" xml:space="preserve" width="42.3332mm" height="21.1666mm" version="1.1" style="shape-rendering:geometricPrecision; text-rendering:geometricPrecision; image-rendering:optimizeQuality; fill-rule:evenodd; clip-rule:evenodd"
viewBox="0 0 4233.32 2116.66"
 xmlns:xlink="http://www.w3.org/1999/xlink"
 xmlns:xodm="http://www.corel.com/coreldraw/odm/2003">
 <defs>
  <style type="text/css">
   <![CDATA[
    .str0 {stroke:#C53A9B;stroke-width:100;stroke-linecap:round;stroke-linejoin:round;stroke-miterlimit:22.9256}
    .fil0 {fill:none}
    .fil1 {fill:#3B71B9;fill-rule:nonzero}
    .fil2 {fill:#3B71B9;fill-rule:nonzero}
    .fil3 {fill:#C53A9B;fill-rule:nonzero}
   ]]>
  </style>
 </defs>
 <g id="Layer_x0020_1">
  <metadata id="CorelCorpID_0Corel-Layer"/>
  <rect class="fil0" x="-2451.41" y="-3532.57" width="9144" height="9144"/>
  <g id="_1499901562448">
   <g>
    <path class="fil1" d="M867.06 1393.7l0 -165.92c-22.65,22.65 -46.34,39.86 -70.9,51.78 -24.57,11.91 -51.78,17.94 -81.64,17.94 -36.48,0 -69.72,-9.56 -99.73,-28.83 -30.01,-19.27 -53.54,-46.92 -70.75,-82.96 -17.07,-36.04 -25.6,-78.55 -25.6,-127.38 0,-50.02 8.68,-92.82 25.89,-128.57 17.21,-35.89 41.19,-63.1 71.78,-81.78 30.6,-18.68 64.58,-27.95 101.79,-27.95 31.63,0 60.02,6.62 85.03,19.71 24.86,13.09 46.33,33.1 64.13,59.87l0 -14.27c0,-21.62 5.15,-38.1 15.45,-49.28 10.44,-11.32 23.82,-16.91 40.15,-16.91 16.33,0 29.72,5.59 40.16,16.62 10.3,11.03 15.44,27.51 15.44,49.28l0 508.8c0,52.22 -18.53,78.4 -55.6,78.4 -22.94,0 -37.95,-7.06 -45.01,-21.18 -7.06,-13.97 -10.59,-33.1 -10.59,-57.37zm-230.35 -336.11c0,31.63 5.15,58.84 15.3,81.64 10.15,22.8 23.53,39.71 40.3,50.75 16.62,11.03 34.57,16.62 53.69,16.62 21.03,0 40.3,-5.59 57.81,-16.62 17.5,-11.04 31.48,-27.8 42.22,-50.6 10.59,-22.66 15.88,-50.61 15.88,-83.85 0,-23.53 -3.09,-44.86 -9.27,-63.69 -6.17,-18.98 -14.56,-34.72 -25.15,-47.22 -10.74,-12.5 -22.8,-21.77 -36.63,-27.95 -13.82,-6.18 -28.39,-9.26 -43.98,-9.26 -31.48,0 -57.81,13.09 -78.69,39.12 -21.04,26.19 -31.48,63.25 -31.48,111.06z"/>
    <path class="fil2" d="M1401.75 1231.16l0 -15.15c-14.12,17.8 -28.83,32.8 -44.42,44.87 -15.44,12.06 -32.36,21.03 -50.75,26.92 -18.38,5.88 -39.27,8.82 -62.81,8.82 -28.53,0 -53.98,-5.88 -76.48,-17.65 -22.51,-11.77 -40.01,-27.95 -52.37,-48.69 -14.56,-25.01 -21.92,-60.9 -21.92,-107.82l0 -233c0,-23.68 5.3,-41.19 15.89,-52.81 10.59,-11.62 24.71,-17.5 42.22,-17.5 17.65,0 32.06,5.88 42.95,17.65 10.88,11.77 16.33,29.27 16.33,52.66l0 188.28c0,27.21 2.35,50.16 6.91,68.7 4.56,18.53 12.8,33.09 24.71,43.54 11.91,10.44 28.09,15.74 48.54,15.74 19.86,0 38.54,-5.89 56.04,-17.66 17.51,-11.76 30.3,-27.21 38.4,-46.18 6.61,-16.63 9.85,-53.11 9.85,-109.44l0 -142.98c0,-23.39 5.44,-40.89 16.33,-52.66 11.03,-11.77 25.3,-17.65 42.8,-17.65 17.51,0 31.63,5.88 42.22,17.5 10.74,11.62 16.03,29.13 16.03,52.81l0 340.82c0,22.36 -5.15,39.13 -15.29,50.45 -10.3,11.18 -23.39,16.77 -39.57,16.77 -16.04,0 -29.42,-5.88 -39.87,-17.5 -10.44,-11.62 -15.74,-27.95 -15.74,-48.84z"/>
    <path class="fil3" d="M1940.9 954.27c-11.58,0 -21.39,-4.03 -29.46,-12.1 -8.07,-8.06 -12.1,-17.88 -12.1,-29.45 0,-11.57 4.03,-21.48 12.1,-29.72 8.07,-8.24 17.88,-12.36 29.46,-12.36 11.57,0 21.47,4.12 29.72,12.36 8.24,8.24 12.36,18.15 12.36,29.72 0,11.57 -4.12,21.39 -12.36,29.45 -8.25,8.07 -18.15,12.1 -29.72,12.1zm-35.77 294.57c-16.83,0 -30.42,-5.26 -40.77,-15.78 -10.34,-10.52 -15.52,-26.3 -15.52,-47.34 0,-8.77 1.41,-20.17 4.21,-34.19l35.77 -168.85 75.75 0 -37.88 178.84c-1.4,5.26 -2.1,10.87 -2.1,16.83 0,7.02 1.67,12.01 5,14.99 3.33,2.99 8.85,4.48 16.57,4.48 6.31,0 11.92,-1.06 16.83,-3.16 -1.4,17.53 -7.63,30.95 -18.67,40.24 -11.05,9.29 -24.11,13.94 -39.19,13.94z"/>
    <path class="fil2" d="M2648.72 954.18l-215.5 240.94 230.5 0c18.68,0 32.8,4.42 42.22,13.1 9.56,8.82 14.27,20.15 14.27,33.83 0,13.24 -4.71,23.97 -13.98,32.36 -9.41,8.38 -23.53,12.5 -42.51,12.5l-318.9 0c-22.36,0 -39.13,-4.85 -50.16,-14.71 -11.03,-9.71 -16.62,-23.09 -16.62,-40.01 0,-10 3.82,-20.15 11.62,-30.45 7.79,-10.15 23.83,-28.83 48.24,-56.19 25.89,-28.68 49.43,-54.72 70.46,-78.1 21.18,-23.25 40.75,-45.02 58.84,-65.32 18.09,-20.15 33.1,-37.36 45.01,-51.48 11.92,-14.12 21.48,-26.18 28.69,-36.18l-174.9 0c-24.12,0 -42.36,-2.21 -54.72,-6.48 -12.36,-4.26 -18.53,-15.59 -18.53,-33.98 0,-13.38 4.56,-24.27 13.97,-32.21 9.27,-8.09 22.65,-12.06 39.86,-12.06l270.22 0c25,0 44.13,3.68 57.51,11.03 13.39,7.21 20.01,20.45 20.01,39.28 0,6.32 -1.33,12.94 -3.83,19.56 -2.65,6.77 -5.44,12.36 -8.68,16.62 -3.09,4.27 -7.5,9.56 -12.94,15.74 -5.44,6.18 -12.21,13.53 -20.15,22.21z"/>
    <path class="fil2" d="M2906.43 885.93l0 340.08c0,23.54 -5.59,41.34 -16.77,53.4 -11.18,12.06 -25.3,18.09 -42.51,18.09 -17.21,0 -31.18,-6.17 -41.92,-18.53 -10.74,-12.36 -16.18,-30.01 -16.18,-52.96l0 -336.55c0,-23.39 5.44,-40.89 16.18,-52.66 10.74,-11.77 24.71,-17.65 41.92,-17.65 17.21,0 31.33,5.88 42.51,17.65 11.18,11.77 16.77,28.24 16.77,49.13zm-58.1 -121.5c-16.33,0 -30.3,-5 -41.92,-15.01 -11.62,-10 -17.36,-24.27 -17.36,-42.65 0,-16.48 5.88,-30.16 17.8,-40.9 11.91,-10.73 25.74,-16.18 41.48,-16.18 15.3,0 28.68,4.86 40.45,14.57 11.76,9.85 17.65,23.97 17.65,42.51 0,18.09 -5.74,32.21 -17.21,42.36 -11.47,10.15 -25,15.3 -40.89,15.3z"/>
    <path class="fil2" d="M3018.81 829.74l27.95 0 0 -35.3c0,-36.78 4.71,-66.05 13.97,-87.82 9.27,-21.62 25.16,-37.36 47.37,-47.37 22.21,-9.85 52.66,-14.85 91.34,-14.85 68.7,0 103.12,16.77 103.12,50.3 0,10.89 -3.68,20.3 -10.89,27.95 -7.2,7.8 -15.59,11.62 -25.44,11.62 -4.56,0 -12.51,-0.88 -23.69,-2.5 -11.18,-1.76 -20.59,-2.64 -28.39,-2.64 -21.32,0 -34.86,6.32 -40.89,18.82 -6.03,12.51 -9.12,30.45 -9.12,53.69l0 28.1 28.83 0c44.87,0 67.23,13.53 67.23,40.45 0,19.12 -5.89,31.33 -17.8,36.48 -11.92,5.15 -28.39,7.8 -49.43,7.8l-28.83 0 0 311.54c0,23.25 -5.59,40.9 -16.62,53.11 -11.03,12.21 -25.3,18.38 -42.66,18.38 -16.62,0 -30.45,-6.17 -41.48,-18.38 -11.03,-12.21 -16.62,-29.86 -16.62,-53.11l0 -311.54 -32.36 0c-17.51,0 -31.04,-3.98 -40.45,-11.77 -9.56,-7.94 -14.27,-18.24 -14.27,-30.89 0,-28.1 19.71,-42.07 59.13,-42.07z"/>
    <path class="fil2" d="M3430.53 1312.36l10.89 -26.33 -144.74 -364.65c-8.98,-21.04 -13.39,-36.33 -13.39,-45.75 0,-10 2.65,-19.41 7.8,-28.09 5.15,-8.53 12.21,-15.45 21.33,-20.6 8.97,-5.14 18.38,-7.79 28.09,-7.79 17.07,0 29.86,5.44 38.39,16.18 8.68,10.74 16.18,26.18 22.8,46.33l99.59 289.64 94.29 -269.34c7.5,-21.91 14.26,-38.98 20.3,-51.33 6.03,-12.36 12.35,-20.74 19.12,-25.01 6.76,-4.27 16.33,-6.47 28.68,-6.47 8.83,0 17.36,2.35 25.6,7.06 8.09,4.85 14.41,11.18 18.97,19.27 4.41,7.94 6.62,16.47 6.62,25.45 -1.18,5.44 -2.94,13.23 -5.59,23.24 -2.65,10 -5.74,20.3 -9.41,30.59l-153.42 401.72c-13.24,35.45 -26.19,63.11 -38.69,83.26 -12.65,20.15 -29.42,35.59 -50.31,46.33 -20.74,10.74 -48.83,16.18 -84.14,16.18 -34.42,0 -60.3,-3.67 -77.51,-11.18 -17.22,-7.5 -25.89,-21.18 -25.89,-40.89 0,-13.53 4.11,-23.98 12.35,-31.18 8.09,-7.36 20.3,-11.04 36.33,-11.04 6.33,0 12.51,0.89 18.54,2.51 7.5,1.76 13.97,2.64 19.42,2.64 13.53,0 24.12,-2.06 31.77,-6.03 7.79,-3.97 14.71,-11.03 20.89,-20.89 6.17,-10 13.38,-24.56 21.32,-43.83z"/>
    <path class="fil0 str0" d="M1915.91 768.93c160.6,0 290.8,130.2 290.8,290.81 0,160.6 -130.2,290.8 -290.8,290.8 -160.6,0 -290.8,-130.2 -290.8,-290.8 0,-160.61 130.2,-290.81 290.8,-290.81z"/>
   </g>
   <rect class="fil0" x="-213.54" y="140.89" width="4660.4" height="1834.88"/>
  </g>
 </g>
</svg>
